<?xml version="1.0"?>
<svg xmlns="http://www.w3.org/2000/svg" xmlns:xlink="http://www.w3.org/1999/xlink" version="1.1" viewBox="0 0 224 224" width="50px" height="50px"><g fill="none" fill-rule="nonzero" stroke="none" stroke-width="1" stroke-linecap="butt" stroke-linejoin="miter" stroke-miterlimit="10" stroke-dasharray="" stroke-dashoffset="0" font-family="none" font-weight="none" font-size="none" text-anchor="none" style="mix-blend-mode: normal"><path d="M0,224v-224h224v224z" fill="none"/><g fill="#ffffff"><path d="M112,8.96c-56.81536,0 -103.04,46.22464 -103.04,103.04c0,17.7408 4.58304,35.18592 13.27424,50.5792l-13.10848,46.7712c-0.43008,1.53664 -0.01344,3.18528 1.0976,4.32768c0.85568,0.88256 2.02048,1.36192 3.21664,1.36192c0.3584,0 0.72128,-0.0448 1.0752,-0.12992l48.81408,-12.09152c14.90496,8.00128 31.69152,12.22144 48.67072,12.22144c56.81536,0 103.04,-46.22464 103.04,-103.04c0,-56.81536 -46.22464,-103.04 -103.04,-103.04zM163.8336,148.35968c-2.20416,6.10176 -12.77696,11.6704 -17.85728,12.41856c-4.56064,0.66752 -10.33088,0.95424 -16.6656,-1.03488c-3.83936,-1.2096 -8.76736,-2.81344 -15.07968,-5.50592c-26.53504,-11.31648 -43.86368,-37.6992 -45.18976,-39.44192c-1.3216,-1.74272 -10.80128,-14.16128 -10.80128,-27.0144c0,-12.85312 6.832,-19.1744 9.26016,-21.79072c2.42816,-2.61632 5.29088,-3.2704 7.056,-3.2704c1.76512,0 3.52576,0.0224 5.07136,0.09408c1.62624,0.08064 3.808,-0.61376 5.95392,4.48448c2.20416,5.23264 7.49504,18.08576 8.14912,19.3984c0.66304,1.30816 1.10208,2.83584 0.224,4.57856c-0.87808,1.74272 -1.31712,2.83136 -2.6432,4.35904c-1.32608,1.52768 -2.7776,3.4048 -3.96928,4.57856c-1.32608,1.30368 -2.70144,2.71488 -1.16032,5.3312c1.54112,2.61632 6.84992,11.16864 14.7168,18.09472c10.1024,8.89728 18.62784,11.65696 21.27104,12.96512c2.6432,1.30816 4.1888,1.08864 5.72992,-0.65408c1.54112,-1.7472 6.61248,-7.62944 8.37312,-10.24128c1.76064,-2.61184 3.52576,-2.18176 5.95392,-1.30816c2.42816,0.86912 15.4336,7.18592 18.0768,8.49408c2.6432,1.30816 4.40832,1.96224 5.07136,3.05088c0.66304,1.08416 0.66304,6.3168 -1.54112,12.41408z"/></g></g></svg>
