<?xml version="1.0"?>
<svg xmlns="http://www.w3.org/2000/svg" xmlns:xlink="http://www.w3.org/1999/xlink" version="1.1" viewBox="0 0 224 224" width="50px" height="50px"><g fill="none" fill-rule="nonzero" stroke="none" stroke-width="1" stroke-linecap="butt" stroke-linejoin="miter" stroke-miterlimit="10" stroke-dasharray="" stroke-dashoffset="0" font-family="none" font-weight="none" font-size="none" text-anchor="none" style="mix-blend-mode: normal"><path d="M0,224v-224h224v224z" fill="none"/><g fill="#ffffff"><path d="M183.68,17.92h-143.36c-12.3648,0 -22.4,10.0352 -22.4,22.4v143.36c0,12.3648 10.0352,22.4 22.4,22.4h143.36c12.3648,0 22.4,-10.0352 22.4,-22.4v-143.36c0,-12.3648 -10.0352,-22.4 -22.4,-22.4zM76.16,89.6v85.12h-26.88v-85.12zM49.28,64.8256c0,-6.272 5.376,-11.0656 13.44,-11.0656c8.064,0 13.1264,4.7936 13.44,11.0656c0,6.272 -5.0176,11.3344 -13.44,11.3344c-8.064,0 -13.44,-5.0624 -13.44,-11.3344zM174.72,174.72h-26.88c0,0 0,-41.4848 0,-44.8c0,-8.96 -4.48,-17.92 -15.68,-18.0992h-0.3584c-10.8416,0 -15.3216,9.2288 -15.3216,18.0992c0,4.0768 0,44.8 0,44.8h-26.88v-85.12h26.88v11.4688c0,0 8.6464,-11.4688 26.0288,-11.4688c17.7856,0 32.2112,12.2304 32.2112,37.0048z"/></g></g></svg>
