<?xml version="1.0"?>
<svg xmlns="http://www.w3.org/2000/svg" xmlns:xlink="http://www.w3.org/1999/xlink" version="1.1" viewBox="0 0 224 224" width="50px" height="50px"><g fill="none" fill-rule="nonzero" stroke="none" stroke-width="1" stroke-linecap="butt" stroke-linejoin="miter" stroke-miterlimit="10" stroke-dasharray="" stroke-dashoffset="0" font-family="none" font-weight="none" font-size="none" text-anchor="none" style="mix-blend-mode: normal"><path d="M0,224v-224h224v224z" fill="none"/><g fill="#ffffff"><g id="surface1"><path d="M201.145,64.96c-1.785,-9.8525 -10.29,-17.0275 -20.16,-19.2675c-14.77,-3.1325 -42.105,-5.3725 -71.68,-5.3725c-29.5575,0 -57.33,2.24 -72.1175,5.3725c-9.8525,2.24 -18.375,8.96 -20.16,19.2675c-1.8025,11.2 -3.5875,26.88 -3.5875,47.04c0,20.16 1.785,35.84 4.025,47.04c1.8025,9.8525 10.3075,17.0275 20.16,19.2675c15.68,3.1325 42.56,5.3725 72.135,5.3725c29.575,0 56.455,-2.24 72.135,-5.3725c9.8525,-2.24 18.3575,-8.96 20.16,-19.2675c1.785,-11.2 4.025,-27.335 4.48,-47.04c-0.91,-20.16 -3.15,-35.84 -5.39,-47.04zM85.12,143.36v-62.72l54.6525,31.36z"/></g></g></g></svg>
