<?xml version="1.0" encoding="iso-8859-1"?>
<!-- Generator: Adobe Illustrator 21.0.0, SVG Export Plug-In . SVG Version: 6.00 Build 0)  -->
<svg xmlns="http://www.w3.org/2000/svg" xmlns:xlink="http://www.w3.org/1999/xlink" version="1.1" x="0px" y="0px" viewBox="0 0 50 50" style="enable-background:new 0 0 50 50;" xml:space="preserve" width="50px" height="50px">
<path d="M43,41H25v2h19.5c2.481,0,4.5-2.019,4.5-4.5V14.028l-6,4.268V41z"/>
<path d="M44.5,7H25v2h18.647L25,22v7l24-17.073V11.5C49,9.019,46.981,7,44.5,7z"/>
<path d="M7,41h18v2H5.5C3.019,43,1,40.981,1,38.5V14.028l6,4.268V41z"/>
<path d="M5.5,7H25v2H6.353L25,22v7L1,11.927V11.5C1,9.019,3.019,7,5.5,7z"/>
</svg>
