<?xml version="1.0" encoding="iso-8859-1"?>
<!-- Generator: Adobe Illustrator 21.0.2, SVG Export Plug-In . SVG Version: 6.00 Build 0)  -->
<svg xmlns="http://www.w3.org/2000/svg" xmlns:xlink="http://www.w3.org/1999/xlink" version="1.1" id="Layer_1" x="0px" y="0px" viewBox="0 0 48 48" style="enable-background:new 0 0 48 48;" xml:space="preserve" width="48px" height="48px">
<circle style="fill:#F4511E;" cx="24" cy="24" r="20"/>
<rect x="34" y="19" style="fill:#FFFFFF;" width="2" height="8"/>
<rect x="31" y="22" style="fill:#FFFFFF;" width="8" height="2"/>
<path style="fill:#FFFFFF;" d="M27.815,22.2l-0.05-0.2H19v3h5.91c-0.477,2.837-2.938,5-5.91,5c-3.314,0-6-2.686-6-6s2.686-6,6-6  c1.5,0,2.868,0.554,3.92,1.465l2.151-2.106C23.471,15.894,21.34,15,19,15c-4.971,0-9,4.029-9,9s4.029,9,9,9s9-4.029,9-9  C28,23.383,27.934,22.782,27.815,22.2z"/>
</svg>
